<svg width="25" height="25" viewBox="0 0 25 25" fill="none" xmlns="http://www.w3.org/2000/svg">
<path d="M12.7695 2.66221C15.9737 2.66221 16.3532 2.6744 17.6185 2.73213C18.7885 2.78553 19.4239 2.98102 19.8468 3.14531C20.4069 3.363 20.8067 3.62308 21.2266 4.04297C21.6465 4.46287 21.9065 4.86266 22.1242 5.42274C22.2885 5.84564 22.484 6.48103 22.5374 7.65097C22.5951 8.91637 22.6073 9.29587 22.6073 12.5C22.6073 15.7042 22.5951 16.0837 22.5374 17.349C22.484 18.519 22.2885 19.1544 22.1242 19.5773C21.9065 20.1374 21.6465 20.5372 21.2266 20.9571C20.8067 21.377 20.4069 21.637 19.8468 21.8547C19.4239 22.019 18.7885 22.2145 17.6185 22.2679C16.3534 22.3256 15.9739 22.3378 12.7695 22.3378C9.56516 22.3378 9.18566 22.3256 7.9205 22.2679C6.75051 22.2145 6.11512 22.019 5.69227 21.8547C5.13215 21.637 4.73235 21.377 4.31246 20.9571C3.89256 20.5372 3.63248 20.1374 3.41484 19.5773C3.2505 19.1544 3.05501 18.519 3.00162 17.3491C2.94388 16.0837 2.93169 15.7042 2.93169 12.5C2.93169 9.29587 2.94388 8.91637 3.00162 7.65102C3.05501 6.48103 3.2505 5.84564 3.41484 5.42274C3.63248 4.86266 3.89256 4.46287 4.31246 4.04297C4.73235 3.62308 5.13215 3.363 5.69227 3.14531C6.11512 2.98102 6.75051 2.78553 7.92045 2.73213C9.18585 2.6744 9.56535 2.66221 12.7695 2.66221ZM12.7695 0.5C9.51048 0.5 9.10187 0.513814 7.82195 0.572213C6.54464 0.630517 5.67236 0.833343 4.90903 1.13001C4.11992 1.43668 3.45071 1.847 2.7836 2.51411C2.11648 3.18123 1.70616 3.85044 1.39949 4.63954C1.10283 5.40288 0.900001 6.27516 0.841697 7.55246C0.783297 8.83234 0.769531 9.241 0.769531 12.5C0.769531 15.7591 0.783297 16.1677 0.841697 17.4476C0.900001 18.7249 1.10283 19.5972 1.39949 20.3605C1.70616 21.1496 2.11648 21.8188 2.7836 22.4859C3.45071 23.1531 4.11992 23.5634 4.90903 23.87C5.67236 24.1667 6.54464 24.3695 7.82195 24.4278C9.10187 24.4862 9.51048 24.5 12.7695 24.5C16.0285 24.5 16.4372 24.4862 17.7171 24.4278C18.9944 24.3695 19.8667 24.1667 20.63 23.87C21.4191 23.5634 22.0883 23.1531 22.7554 22.4859C23.4225 21.8188 23.8329 21.1496 24.1395 20.3605C24.4362 19.5972 24.639 18.7249 24.6973 17.4476C24.7557 16.1677 24.7695 15.7591 24.7695 12.5C24.7695 9.241 24.7557 8.83234 24.6973 7.55246C24.639 6.27516 24.4362 5.40288 24.1395 4.63954C23.8329 3.85044 23.4225 3.18123 22.7554 2.51411C22.0883 1.847 21.4191 1.43668 20.63 1.13001C19.8667 0.833343 18.9944 0.630517 17.7171 0.572213C16.4372 0.513814 16.0285 0.5 12.7695 0.5ZM12.7695 6.33784C9.36624 6.33784 6.60733 9.09676 6.60733 12.5C6.60733 15.9033 9.36624 18.6622 12.7695 18.6622C16.1728 18.6622 18.9317 15.9033 18.9317 12.5C18.9317 9.09676 16.1728 6.33784 12.7695 6.33784ZM12.7695 16.5C10.5604 16.5 8.76948 14.7091 8.76948 12.5C8.76948 10.2909 10.5604 8.5 12.7695 8.5C14.9786 8.5 16.7695 10.2909 16.7695 12.5C16.7695 14.7091 14.9786 16.5 12.7695 16.5ZM20.6151 6.09438C20.6151 6.88968 19.9704 7.53441 19.1751 7.53441C18.3798 7.53441 17.7351 6.88968 17.7351 6.09438C17.7351 5.29909 18.3798 4.65441 19.1751 4.65441C19.9704 4.65441 20.6151 5.29909 20.6151 6.09438Z" fill="white"/>
</svg>
