<svg width="9" height="16" viewBox="0 0 9 16" fill="none" xmlns="http://www.w3.org/2000/svg">
<path d="M2.55989 8.00095L8.78039 14.2199C8.92122 14.3608 9.00033 14.5518 9.00033 14.7509C9.00033 14.9501 8.92122 15.1411 8.78039 15.2819C8.63956 15.4228 8.44855 15.5019 8.24939 15.5019C8.05022 15.5019 7.85922 15.4228 7.71839 15.2819L0.968387 8.53195C0.898543 8.46228 0.843128 8.37951 0.805319 8.2884C0.767509 8.19728 0.748047 8.0996 0.748047 8.00095C0.748047 7.9023 0.767509 7.80462 0.805319 7.7135C0.843128 7.62238 0.898543 7.53962 0.968387 7.46995L7.71839 0.719947C7.85922 0.579117 8.05022 0.5 8.24939 0.5C8.44855 0.5 8.63956 0.579117 8.78039 0.719947C8.92122 0.860777 9.00033 1.05178 9.00033 1.25095C9.00033 1.45011 8.92122 1.64112 8.78039 1.78195L2.55989 8.00095Z" fill="#294DFF"/>
</svg>
