<svg width="16" height="16" viewBox="0 0 16 16" fill="none" xmlns="http://www.w3.org/2000/svg">
<path d="M8 8C6.9 8 5.95833 7.60833 5.175 6.825C4.39167 6.04167 4 5.1 4 4C4 2.9 4.39167 1.95833 5.175 1.175C5.95833 0.391667 6.9 0 8 0C9.1 0 10.0417 0.391667 10.825 1.175C11.6083 1.95833 12 2.9 12 4C12 5.1 11.6083 6.04167 10.825 6.825C10.0417 7.60833 9.1 8 8 8ZM12 16V9.6C12.4167 9.73333 12.825 9.875 13.225 10.025C13.625 10.175 14.0167 10.35 14.4 10.55C14.9 10.8 15.2917 11.1625 15.575 11.6375C15.8583 12.1125 16 12.6333 16 13.2V16H12ZM6 12.5V9.15C6.33333 9.1 6.66667 9.0625 7 9.0375C7.33333 9.0125 7.66667 9 8 9C8.33333 9 8.66667 9.0125 9 9.0375C9.33333 9.0625 9.66667 9.1 10 9.15V12.5H6ZM0 16V13.2C0 12.6333 0.141667 12.1125 0.425 11.6375C0.708333 11.1625 1.1 10.8 1.6 10.55C1.98333 10.35 2.375 10.175 2.775 10.025C3.175 9.875 3.58333 9.73333 4 9.6V16H0Z" fill="#474848"/>
</svg>
