<svg width="18" height="18" viewBox="0 0 18 18" fill="none" xmlns="http://www.w3.org/2000/svg">
<path d="M3.75 0C2.75544 0 1.80161 0.395088 1.09835 1.09835C0.395088 1.80161 0 2.75544 0 3.75V11.25C0 11.7425 0.0969966 12.2301 0.285452 12.6851C0.473907 13.14 0.75013 13.5534 1.09835 13.9017C1.80161 14.6049 2.75544 15 3.75 15H11.25C11.7425 15 12.2301 14.903 12.6851 14.7145C13.14 14.5261 13.5534 14.2499 13.9017 13.9017C14.2499 13.5534 14.5261 13.14 14.7145 12.6851C14.903 12.2301 15 11.7425 15 11.25V3.75C15 3.25754 14.903 2.76991 14.7145 2.31494C14.5261 1.85997 14.2499 1.44657 13.9017 1.09835C13.5534 0.75013 13.14 0.473907 12.6851 0.285452C12.2301 0.0969966 11.7425 0 11.25 0H3.75ZM11.781 5.781L7.281 10.281C7.21133 10.3508 7.12857 10.4063 7.03745 10.4441C6.94633 10.4819 6.84865 10.5013 6.75 10.5013C6.65135 10.5013 6.55367 10.4819 6.46255 10.4441C6.37143 10.4063 6.28867 10.3508 6.219 10.281L3.969 8.031C3.89927 7.96127 3.84395 7.87848 3.80621 7.78738C3.76848 7.69627 3.74905 7.59862 3.74905 7.5C3.74905 7.40138 3.76848 7.30373 3.80621 7.21262C3.84395 7.12152 3.89927 7.03873 3.969 6.969C4.03873 6.89927 4.12152 6.84395 4.21262 6.80621C4.30373 6.76848 4.40138 6.74905 4.5 6.74905C4.59862 6.74905 4.69627 6.76848 4.78738 6.80621C4.87848 6.84395 4.96127 6.89927 5.031 6.969L6.75 8.6895L10.719 4.719C10.8598 4.57817 11.0508 4.49905 11.25 4.49905C11.4492 4.49905 11.6402 4.57817 11.781 4.719C11.9218 4.85983 12.0009 5.05084 12.0009 5.25C12.0009 5.44916 11.9218 5.64017 11.781 5.781ZM4.5 16.5C5.184 17.4105 6.273 18 7.5 18H11.25C13.0402 18 14.7571 17.2888 16.023 16.023C17.2888 14.7571 18 13.0402 18 11.25V6C18 4.773 17.4105 3.684 16.5 3V11.25C16.5 12.6424 15.9469 13.9777 14.9623 14.9623C13.9777 15.9469 12.6424 16.5 11.25 16.5H4.5Z" fill="#4D5672"/>
</svg>
