<svg width="25" height="17" viewBox="0 0 25 17" fill="none" xmlns="http://www.w3.org/2000/svg">
<path d="M23.751 2.143C23.1 1.0375 22.401 0.83425 20.955 0.757C19.509 0.67975 15.9038 0.625 12.7695 0.625C9.63528 0.625 6.01953 0.664 4.58178 0.7555C3.14553 0.847 2.43903 1.042 1.78353 2.1415C1.12803 3.241 0.769531 5.1475 0.769531 8.5V8.51275C0.769531 11.8465 1.11453 13.762 1.78503 14.8547C2.45553 15.9467 3.14853 16.1597 4.58403 16.2535C6.01953 16.3465 9.63678 16.375 12.7703 16.375C15.9038 16.375 19.5203 16.3278 20.9528 16.249C22.3853 16.1703 23.0978 15.9557 23.7495 14.8502C24.429 13.7575 24.7695 11.8427 24.7695 8.50825V8.5C24.771 5.1475 24.429 3.247 23.751 2.143ZM9.76953 12.7952V4.20475L17.2695 8.5L9.76953 12.7952Z" fill="white"/>
</svg>
