<svg width="25" height="19" viewBox="0 0 25 19" fill="none" xmlns="http://www.w3.org/2000/svg">
<path d="M24.7695 2.37302C23.8669 2.74971 22.9121 3.00015 21.9344 3.11702C22.9522 2.54528 23.7229 1.61775 24.0986 0.512495C23.1287 1.06166 22.0749 1.44701 20.9796 1.65302C19.5981 0.244321 17.4589 -0.213766 15.5817 0.496843C13.7045 1.20745 12.4711 2.94276 12.469 4.87528C12.4656 5.23637 12.5038 5.59665 12.5827 5.94902C8.62484 5.76537 4.9351 3.97371 2.44014 1.02484C1.12849 3.17545 1.7911 5.93232 3.95318 7.31806C3.17752 7.30067 2.41641 7.10387 1.72953 6.7431V6.79423C1.73475 9.03354 3.38136 10.964 5.67284 11.4158C5.25086 11.5238 4.81656 11.5761 4.38101 11.5713C4.06849 11.5773 3.7562 11.5507 3.44918 11.492C4.10136 13.4068 5.9431 14.7226 8.04675 14.7737C6.28369 16.0848 4.1437 16.7902 1.94657 16.7845C1.55324 16.7871 1.16013 16.7651 0.769531 16.7188C3.03945 18.1124 5.65342 18.8446 8.31701 18.8328C12.0381 18.8568 15.6141 17.4534 18.2467 14.9344C20.8794 12.4155 22.3466 8.9918 22.3215 5.42832C22.3215 5.21963 22.3132 5.01928 22.3027 4.81997C23.2666 4.16061 24.1024 3.33147 24.7695 2.37302Z" fill="white"/>
</svg>
