<svg width="24" height="25" viewBox="0 0 24 25" fill="none" xmlns="http://www.w3.org/2000/svg">
<path d="M3.39876 0.5C1.66241 0.5 0.291277 1.94104 0.291277 3.65235C0.2899 4.06086 0.369329 4.46562 0.524993 4.84331C0.680658 5.22101 0.909484 5.56419 1.1983 5.85311C1.48712 6.14202 1.83022 6.37096 2.20787 6.52675C2.58551 6.68255 2.99024 6.76211 3.39876 6.76087C5.13615 6.76087 6.55215 5.3647 6.55215 3.65235C6.55215 1.94104 5.13615 0.5 3.39876 0.5ZM19.9379 8.75391C18.0836 7.80435 15.4812 7.63217 13.581 8.5807V7.80435H8.6391V24.5H13.581V13.8002C13.581 13.8002 15.6106 11.8603 17.5546 12.9383C17.9511 13.0677 18.3935 13.844 18.3935 14.3188V24.5H23.2478V14.3188C23.2478 12.1619 21.9226 9.83183 19.9379 8.75391ZM0.291277 7.80435H5.50867V24.5H0.291277V7.80435Z" fill="white"/>
</svg>
