<svg width="25" height="25" viewBox="0 0 25 25" fill="none" xmlns="http://www.w3.org/2000/svg">
<path d="M24.7695 23.1476C24.7695 23.876 24.1467 24.5 23.4159 24.5H17.5695V14.9H20.4243L20.8923 11.3H17.5695V9.2624C17.5695 8.2148 17.5995 7.7 19.1007 7.7H21.1695V4.2668C21.1695 4.2236 19.8243 4.124 18.4995 4.124C15.7371 4.124 13.9695 5.81 13.9695 8.9048V11.3H10.3695V14.9H13.9695V24.5H2.09673C1.36713 24.5 0.769531 23.8784 0.769531 23.1476V1.8272C0.769531 1.0964 1.36713 0.5 2.09673 0.5H23.4171C24.1479 0.5 24.7695 1.0964 24.7695 1.8272V23.1476Z" fill="white"/>
</svg>
